<?xml version="1.0" encoding="UTF-8" standalone="no"?>
<!-- Created with Inkscape (http://www.inkscape.org/) -->

<svg
   width="600"
   height="600"
   viewBox="0 0 158.74999 158.75"
   version="1.1"
   id="svg5"
   inkscape:version="1.2.2 (b0a8486541, 2022-12-01)"
   sodipodi:docname="dafny-03.svg"
   xmlns:inkscape="http://www.inkscape.org/namespaces/inkscape"
   xmlns:sodipodi="http://sodipodi.sourceforge.net/DTD/sodipodi-0.dtd"
   xmlns="http://www.w3.org/2000/svg"
   xmlns:svg="http://www.w3.org/2000/svg">
  <sodipodi:namedview
     id="namedview7"
     pagecolor="#505050"
     bordercolor="#eeeeee"
     borderopacity="1"
     inkscape:showpageshadow="0"
     inkscape:pageopacity="0"
     inkscape:pagecheckerboard="true"
     inkscape:deskcolor="#505050"
     inkscape:document-units="px"
     showgrid="false"
     inkscape:zoom="0.39322069"
     inkscape:cx="293.72819"
     inkscape:cy="-239.05151"
     inkscape:window-width="1920"
     inkscape:window-height="1003"
     inkscape:window-x="0"
     inkscape:window-y="0"
     inkscape:window-maximized="1"
     inkscape:current-layer="layer1" />
  <defs
     id="defs2" />
  <g
     inkscape:label="Layer 1"
     inkscape:groupmode="layer"
     id="layer1">
    <g
       id="g1453">
      <path
         id="path1220"
         style="opacity:0.990674;fill:#006680;fill-opacity:0.992157;stroke-width:2.24541"
         d="m 0,0 v 52.916665 h 79.374997 c 14.612526,0 26.458333,11.845817 26.458333,26.458332 0,14.612526 -11.845807,26.458333 -26.458333,26.458333 H 40.289529 l -3.919657,52.91666 h 43.005125 c 43.837563,0 79.374993,-35.53743 79.374993,-79.374993 C 158.74999,35.537451 123.21256,0 79.374997,0 Z" />
      <path
         id="path1224"
         style="opacity:0.990674;fill:#a05a2c;fill-opacity:0.992157;stroke-width:1.53575"
         d="m 0,0 v 158.74999 h 54.50519 24.8698 c 8.01917,0 15.76027,-1.18956 23.057,-3.40134 L 52.91666,105.83333 V 0 Z" />
      <path
         id="path1222"
         style="opacity:0.990674;fill:#00ab88;fill-opacity:0.984314;stroke-width:2.24541"
         d="M 0,0 V 52.916665 H 52.916665 L 102.42734,3.4059935 C 95.131342,1.1946701 87.393233,0 79.374997,0 H 62.654055 Z" />
    </g>
  </g>
</svg>
