<?xml version="1.0" encoding="UTF-8" standalone="no"?>
<!-- Created with Inkscape (http://www.inkscape.org/) -->

<svg
   width="512"
   height="512"
   viewBox="0 0 135.46666 135.46667"
   version="1.1"
   id="svg5"
   xml:space="preserve"
   inkscape:version="1.2.2 (b0a8486541, 2022-12-01)"
   xmlns:inkscape="http://www.inkscape.org/namespaces/inkscape"
   xmlns:sodipodi="http://sodipodi.sourceforge.net/DTD/sodipodi-0.dtd"
   xmlns:xlink="http://www.w3.org/1999/xlink"
   xmlns="http://www.w3.org/2000/svg"
   xmlns:svg="http://www.w3.org/2000/svg"><sodipodi:namedview
     id="namedview7"
     pagecolor="#505050"
     bordercolor="#eeeeee"
     borderopacity="1"
     inkscape:showpageshadow="0"
     inkscape:pageopacity="0"
     inkscape:pagecheckerboard="0"
     inkscape:deskcolor="#505050"
     inkscape:document-units="px"
     showgrid="false"
     inkscape:zoom="1.2599709"
     inkscape:cx="354.37326"
     inkscape:cy="276.19685"
     inkscape:window-width="1920"
     inkscape:window-height="1003"
     inkscape:window-x="0"
     inkscape:window-y="0"
     inkscape:window-maximized="1"
     inkscape:current-layer="layer1" /><defs
     id="defs2"><linearGradient
       inkscape:collect="always"
       id="linearGradient41943"><stop
         style="stop-color:#155f7c;stop-opacity:1;"
         offset="0"
         id="stop41939" /><stop
         style="stop-color:#5c848d;stop-opacity:1;"
         offset="1"
         id="stop41941" /></linearGradient><linearGradient
       inkscape:collect="always"
       id="linearGradient41730"><stop
         style="stop-color:#628d8f;stop-opacity:1;"
         offset="0"
         id="stop41726" /><stop
         style="stop-color:#81ba95;stop-opacity:1;"
         offset="1"
         id="stop41728" /></linearGradient><linearGradient
       inkscape:collect="always"
       id="linearGradient37810"><stop
         style="stop-color:#4aa194;stop-opacity:1;"
         offset="0"
         id="stop37806" /><stop
         style="stop-color:#81ba95;stop-opacity:1;"
         offset="1"
         id="stop37808" /></linearGradient><linearGradient
       inkscape:collect="always"
       id="linearGradient34137"><stop
         style="stop-color:#155f7c;stop-opacity:1;"
         offset="0"
         id="stop34133" /><stop
         style="stop-color:#4ba295;stop-opacity:1;"
         offset="1"
         id="stop34135" /></linearGradient><linearGradient
       inkscape:collect="always"
       id="linearGradient7365"><stop
         style="stop-color:#2a3d81;stop-opacity:1;"
         offset="0"
         id="stop7361" /><stop
         style="stop-color:#81ba95;stop-opacity:1;"
         offset="1"
         id="stop7363" /></linearGradient><linearGradient
       inkscape:collect="always"
       xlink:href="#linearGradient7365"
       id="linearGradient7367"
       x1="102.68819"
       y1="169.69417"
       x2="123.42151"
       y2="96.862679"
       gradientUnits="userSpaceOnUse"
       gradientTransform="rotate(-8.3438365,100.83544,127.67924)" /><linearGradient
       inkscape:collect="always"
       xlink:href="#linearGradient34137"
       id="linearGradient34139"
       x1="143.45856"
       y1="4.6255522"
       x2="137.86633"
       y2="-6.4504085"
       gradientUnits="userSpaceOnUse" /><linearGradient
       inkscape:collect="always"
       xlink:href="#linearGradient37810"
       id="linearGradient37812"
       x1="141.41205"
       y1="4.1742759"
       x2="133.03789"
       y2="-10.353621"
       gradientUnits="userSpaceOnUse" /><linearGradient
       inkscape:collect="always"
       xlink:href="#linearGradient34137"
       id="linearGradient40446"
       gradientUnits="userSpaceOnUse"
       x1="143.45856"
       y1="4.6255522"
       x2="137.86633"
       y2="-6.4504085" /><linearGradient
       inkscape:collect="always"
       xlink:href="#linearGradient37810"
       id="linearGradient40448"
       gradientUnits="userSpaceOnUse"
       x1="141.41205"
       y1="4.1742759"
       x2="133.03789"
       y2="-10.353621" /><linearGradient
       inkscape:collect="always"
       xlink:href="#linearGradient34137"
       id="linearGradient40456"
       gradientUnits="userSpaceOnUse"
       x1="143.45856"
       y1="4.6255522"
       x2="137.86633"
       y2="-6.4504085" /><linearGradient
       inkscape:collect="always"
       xlink:href="#linearGradient37810"
       id="linearGradient40458"
       gradientUnits="userSpaceOnUse"
       x1="141.41205"
       y1="4.1742759"
       x2="133.03789"
       y2="-10.353621" /><linearGradient
       inkscape:collect="always"
       xlink:href="#linearGradient34137"
       id="linearGradient40515"
       gradientUnits="userSpaceOnUse"
       x1="143.45856"
       y1="4.6255522"
       x2="137.86633"
       y2="-6.4504085" /><linearGradient
       inkscape:collect="always"
       xlink:href="#linearGradient37810"
       id="linearGradient40517"
       gradientUnits="userSpaceOnUse"
       x1="141.41205"
       y1="4.1742759"
       x2="133.03789"
       y2="-10.353621" /><linearGradient
       inkscape:collect="always"
       xlink:href="#linearGradient34137"
       id="linearGradient40525"
       gradientUnits="userSpaceOnUse"
       x1="143.45856"
       y1="4.6255522"
       x2="137.86633"
       y2="-6.4504085" /><linearGradient
       inkscape:collect="always"
       xlink:href="#linearGradient37810"
       id="linearGradient40527"
       gradientUnits="userSpaceOnUse"
       x1="141.41205"
       y1="4.1742759"
       x2="133.03789"
       y2="-10.353621" /><linearGradient
       inkscape:collect="always"
       xlink:href="#linearGradient34137"
       id="linearGradient40535"
       gradientUnits="userSpaceOnUse"
       x1="143.45856"
       y1="4.6255522"
       x2="137.86633"
       y2="-6.4504085" /><linearGradient
       inkscape:collect="always"
       xlink:href="#linearGradient37810"
       id="linearGradient40537"
       gradientUnits="userSpaceOnUse"
       x1="141.41205"
       y1="4.1742759"
       x2="133.03789"
       y2="-10.353621" /><linearGradient
       inkscape:collect="always"
       xlink:href="#linearGradient34137"
       id="linearGradient40555"
       gradientUnits="userSpaceOnUse"
       x1="143.45856"
       y1="4.6255522"
       x2="137.86633"
       y2="-6.4504085" /><linearGradient
       inkscape:collect="always"
       xlink:href="#linearGradient37810"
       id="linearGradient40557"
       gradientUnits="userSpaceOnUse"
       x1="141.41205"
       y1="4.1742759"
       x2="133.03789"
       y2="-10.353621" /><linearGradient
       inkscape:collect="always"
       xlink:href="#linearGradient34137"
       id="linearGradient40565"
       gradientUnits="userSpaceOnUse"
       x1="137.29398"
       y1="-6.9038644"
       x2="143.69055"
       y2="0.64239115" /><linearGradient
       inkscape:collect="always"
       xlink:href="#linearGradient37810"
       id="linearGradient40567"
       gradientUnits="userSpaceOnUse"
       x1="134.61185"
       y1="-4.7249322"
       x2="139.86343"
       y2="3.3617828" /><linearGradient
       inkscape:collect="always"
       xlink:href="#linearGradient34137"
       id="linearGradient40575"
       gradientUnits="userSpaceOnUse"
       x1="143.45856"
       y1="4.6255522"
       x2="137.86633"
       y2="-6.4504085" /><linearGradient
       inkscape:collect="always"
       xlink:href="#linearGradient37810"
       id="linearGradient40577"
       gradientUnits="userSpaceOnUse"
       x1="141.41205"
       y1="4.1742759"
       x2="133.03789"
       y2="-10.353621" /><linearGradient
       inkscape:collect="always"
       xlink:href="#linearGradient34137"
       id="linearGradient40595"
       gradientUnits="userSpaceOnUse"
       x1="143.45856"
       y1="4.6255522"
       x2="137.86633"
       y2="-6.4504085" /><linearGradient
       inkscape:collect="always"
       xlink:href="#linearGradient37810"
       id="linearGradient40597"
       gradientUnits="userSpaceOnUse"
       x1="141.41205"
       y1="4.1742759"
       x2="133.03789"
       y2="-10.353621" /><linearGradient
       inkscape:collect="always"
       xlink:href="#linearGradient34137"
       id="linearGradient40635"
       gradientUnits="userSpaceOnUse"
       x1="143.45856"
       y1="4.6255522"
       x2="137.86633"
       y2="-6.4504085" /><linearGradient
       inkscape:collect="always"
       xlink:href="#linearGradient37810"
       id="linearGradient40637"
       gradientUnits="userSpaceOnUse"
       x1="141.41205"
       y1="4.1742759"
       x2="133.03789"
       y2="-10.353621" /><linearGradient
       inkscape:collect="always"
       xlink:href="#linearGradient41943"
       id="linearGradient40645"
       gradientUnits="userSpaceOnUse"
       x1="141.80278"
       y1="0.51173943"
       x2="134.40546"
       y2="-10.081458" /><linearGradient
       inkscape:collect="always"
       xlink:href="#linearGradient41730"
       id="linearGradient40647"
       gradientUnits="userSpaceOnUse"
       x1="137.27588"
       y1="-0.14210609"
       x2="129.90646"
       y2="-13.502265" /><linearGradient
       inkscape:collect="always"
       xlink:href="#linearGradient34137"
       id="linearGradient41992"
       gradientUnits="userSpaceOnUse"
       x1="143.45856"
       y1="4.6255522"
       x2="137.86633"
       y2="-6.4504085" /><linearGradient
       inkscape:collect="always"
       xlink:href="#linearGradient37810"
       id="linearGradient41994"
       gradientUnits="userSpaceOnUse"
       x1="141.41205"
       y1="4.1742759"
       x2="133.03789"
       y2="-10.353621" /></defs><g
     inkscape:label="Layer 1"
     inkscape:groupmode="layer"
     id="layer1"><g
       id="g41990"
       transform="matrix(0.87498873,0,0,0.87498873,-29.115677,-45.454133)"><path
         id="path20460"
         style="opacity:0.990674;fill:#164574;fill-opacity:1;stroke-width:2.11667"
         d="m 183.33506,102.6449 a 75.761986,75.761986 0 0 1 3.11299,21.48137 75.761986,75.761986 0 0 1 -75.7623,75.76179 75.761986,75.761986 0 0 1 -75.761784,-75.76179 75.761986,75.761986 0 0 1 3.085083,-21.28449 77.410599,77.410599 0 0 0 -4.733561,26.51673 77.410599,77.410599 0 0 0 77.410262,77.41078 77.410599,77.410599 0 0 0 77.41078,-77.41078 77.410599,77.410599 0 0 0 -4.76147,-26.71361 z" /><path
         id="path23387"
         style="opacity:0.990674;fill:#57b2c1;fill-opacity:1;stroke-width:2.58921"
         d="m 63.641077,173.63385 a 70.701096,70.701096 0 0 0 47.291173,18.187 70.701096,70.701096 0 0 0 47.29117,-18.187 87.752434,87.752434 0 0 1 -47.29117,13.90251 87.752434,87.752434 0 0 1 -47.291173,-13.90251 z" /><path
         id="path26359"
         style="opacity:0.990674;fill:#5ca6a2;fill-opacity:1;stroke-width:2.35135"
         d="m 179.33427,132.93814 a 60.705673,60.705673 0 0 1 -42.73331,43.34361 67.198174,67.198174 0 0 1 -25.93278,8.27443 60.705673,60.705673 0 0 0 8.57312,0.61805 60.705673,60.705673 0 0 0 60.09297,-52.23609 z" /><path
         id="path27774"
         style="opacity:0.990674;fill:#58b3c1;fill-opacity:1;stroke-width:2.2893"
         d="m 174.64464,141.12162 a 79.310249,79.310249 0 0 1 -25.83202,21.91236 c -2.74368,4.65227 -6.30871,8.47321 -10.44691,11.58947 a 70.65004,70.65004 0 0 0 36.27893,-33.50183 z m -124.558808,1.8495 c 6.319436,11.53038 16.534312,20.32396 28.523323,25.26151 3.936463,1.62118 7.715498,1.8631 11.100098,1.01389 a 79.310249,79.310249 0 0 1 -39.623421,-26.2754 z" /><path
         id="path3956"
         style="opacity:0.990674;fill:url(#linearGradient7367);fill-opacity:1;stroke-width:2.11667"
         d="m 107.84768,87.144035 c -6.15561,4.55947 -9.42833,12.152776 -8.200532,19.714045 2.185882,13.46152 12.197782,15.31455 22.327422,19.34491 9.145,3.6386 17.90912,8.76765 18.35588,19.80257 0.22424,5.53872 -3.0088,11.10701 -6.02392,14.3862 -7.63698,8.30584 -17.67995,12.27243 -26.88518,13.62914 -1.41994,0.20928 -2.8363,0.36469 -4.24677,0.46871 6.37351,-5.34122 10.19762,-12.9913 10.57765,-21.16047 0.68872,-15.40892 -10.85736,-33.05135 -26.626799,-35.1565 11.677695,4.95634 19.141399,20.60504 18.466059,32.9308 -0.874,15.95158 -14.240883,25.14335 -27.957334,19.49438 -17.191602,-7.08017 -30.94088,-21.79953 -35.395391,-41.10392 0.09735,1.57231 0.258709,3.13968 0.483175,4.69894 4.667046,31.82208 34.311984,54.2574 66.06935,49.16858 16.58592,-2.65773 31.92944,-9.43827 39.11854,-24.02748 5.00642,-10.15978 4.07652,-22.61214 -2.23473,-31.88969 -5.39998,-7.93798 -12.56816,-12.84674 -18.99245,-13.4475 2.61639,1.41909 6.11378,3.84336 6.31543,6.56024 -5.44311,-1.29998 -11.78834,-2.54106 -15.57992,-3.81941 -8.36045,-2.81877 -11.8139,-8.79669 -12.90878,-14.95258 -0.74973,-5.125603 0.44098,-10.346843 3.3383,-14.640965 z"
         sodipodi:nodetypes="cssssscccssccsssccscc" /><path
         id="path22295"
         style="opacity:0.990674;fill:#5da6a2;fill-opacity:1;stroke-width:2.38472"
         d="m 39.571228,119.20771 a 71.624329,71.624329 0 0 0 -0.563273,8.57467 71.624329,71.624329 0 0 0 71.624565,71.62457 71.624329,71.624329 0 0 0 71.62406,-71.62457 71.624329,71.624329 0 0 0 -0.51832,-8.55865 71.158234,71.158234 0 0 1 0.0522,2.58434 71.158234,71.158234 0 0 1 -71.15793,71.15793 71.158234,71.158234 0 0 1 -71.158444,-71.15793 71.158234,71.158234 0 0 1 0.09715,-2.60036 z" /><g
         id="g38989"
         transform="translate(-2.1906757,-8.3181001)"><path
           id="path30543"
           style="opacity:0.990674;fill:url(#linearGradient34139);fill-opacity:1;stroke-width:5.11699"
           transform="rotate(37.054384)"
           d="m 132.18816,-10.249933 c 0.31659,-0.135104 7.8512,1.7811675 10.04562,4.7739534 3.0865,4.2094306 0.84672,9.2029797 2.51422,13.3159882 -1.1982,-0.8910695 -5.005,-5.3853878 -7.01468,-8.61199871 -2.02657,-3.25373379 -5.54516,-9.47794289 -5.54516,-9.47794289 z"
           sodipodi:nodetypes="cscsc" /><path
           id="rect28125"
           style="opacity:0.990674;fill:url(#linearGradient37812);fill-opacity:1;stroke-width:5.11699"
           transform="rotate(37.054384)"
           d="m 132.18816,-10.249933 c 0.32417,-0.04054 3.16413,3.7663317 5.37148,8.5609198 0.93569,2.03242826 4.41646,7.161462 7.18836,9.5290218 0,0 -6.66011,-3.9318936 -8.90086,-7.18785275 -2.17315,-3.15771845 -3.65898,-10.90208885 -3.65898,-10.90208885 z"
           sodipodi:nodetypes="cscsc" /></g><g
         id="g40444"
         transform="matrix(0.79100981,-0.28764025,0.28764025,0.79100981,-12.793591,49.404755)"><path
           id="path40440"
           style="opacity:0.990674;fill:url(#linearGradient40446);fill-opacity:1;stroke-width:5.11699"
           transform="rotate(37.054384)"
           d="m 132.18816,-10.249933 c 0.31659,-0.135104 7.8512,1.7811675 10.04562,4.7739534 3.0865,4.2094306 0.84672,9.2029797 2.51422,13.3159882 -1.1982,-0.8910695 -5.005,-5.3853878 -7.01468,-8.61199871 -2.02657,-3.25373379 -5.54516,-9.47794289 -5.54516,-9.47794289 z"
           sodipodi:nodetypes="cscsc" /><path
           id="path40442"
           style="opacity:0.990674;fill:url(#linearGradient40448);fill-opacity:1;stroke-width:5.11699"
           transform="rotate(37.054384)"
           d="m 132.18816,-10.249933 c 0.32417,-0.04054 3.16413,3.7663317 5.37148,8.5609198 0.93569,2.03242826 4.41646,7.161462 7.18836,9.5290218 0,0 -6.66011,-3.9318936 -8.90086,-7.18785275 -2.17315,-3.15771845 -3.65898,-10.90208885 -3.65898,-10.90208885 z"
           sodipodi:nodetypes="cscsc" /></g><g
         id="g40454"
         transform="matrix(0.63697947,0.55017324,-0.55017324,0.63697947,89.714116,-26.260863)"><path
           id="path40450"
           style="opacity:0.990674;fill:url(#linearGradient40456);fill-opacity:1;stroke-width:5.11699"
           transform="rotate(37.054384)"
           d="m 132.18816,-10.249933 c 0.31659,-0.135104 7.8512,1.7811675 10.04562,4.7739534 3.0865,4.2094306 0.84672,9.2029797 2.51422,13.3159882 -1.1982,-0.8910695 -5.005,-5.3853878 -7.01468,-8.61199871 -2.02657,-3.25373379 -5.54516,-9.47794289 -5.54516,-9.47794289 z"
           sodipodi:nodetypes="cscsc" /><path
           id="path40452"
           style="opacity:0.990674;fill:url(#linearGradient40458);fill-opacity:1;stroke-width:5.11699"
           transform="rotate(37.054384)"
           d="m 132.18816,-10.249933 c 0.32417,-0.04054 3.16413,3.7663317 5.37148,8.5609198 0.93569,2.03242826 4.41646,7.161462 7.18836,9.5290218 0,0 -6.66011,-3.9318936 -8.90086,-7.18785275 -2.17315,-3.15771845 -3.65898,-10.90208885 -3.65898,-10.90208885 z"
           sodipodi:nodetypes="cscsc" /></g><g
         id="g40513"
         transform="matrix(-1.1041189,0.55724319,0.27095646,1.0711597,193.97486,-43.413828)"><path
           id="path40509"
           style="opacity:0.990674;fill:url(#linearGradient40515);fill-opacity:1;stroke-width:5.11699"
           transform="rotate(37.054384)"
           d="m 132.18816,-10.249933 c 0.31659,-0.135104 7.8512,1.7811675 10.04562,4.7739534 3.0865,4.2094306 0.84672,9.2029797 2.51422,13.3159882 -1.1982,-0.8910695 -5.005,-5.3853878 -7.01468,-8.61199871 -2.02657,-3.25373379 -5.54516,-9.47794289 -5.54516,-9.47794289 z"
           sodipodi:nodetypes="cscsc" /><path
           id="path40511"
           style="opacity:0.990674;fill:url(#linearGradient40517);fill-opacity:1;stroke-width:5.11699"
           transform="rotate(37.054384)"
           d="m 132.18816,-10.249933 c 0.32417,-0.04054 3.16413,3.7663317 5.37148,8.5609198 0.93569,2.03242826 4.41646,7.161462 7.18836,9.5290218 0,0 -6.66011,-3.9318936 -8.90086,-7.18785275 -2.17315,-3.15771845 -3.65898,-10.90208885 -3.65898,-10.90208885 z"
           sodipodi:nodetypes="cscsc" /></g><g
         id="g40523"
         transform="matrix(-0.04628536,1.0226365,0.88264058,0.2394076,13.769101,-12.182617)"><path
           id="path40519"
           style="opacity:0.990674;fill:url(#linearGradient40525);fill-opacity:1;stroke-width:5.11699"
           transform="rotate(37.054384)"
           d="m 132.18816,-10.249933 c 0.31659,-0.135104 7.8512,1.7811675 10.04562,4.7739534 3.0865,4.2094306 0.84672,9.2029797 2.51422,13.3159882 -1.1982,-0.8910695 -5.005,-5.3853878 -7.01468,-8.61199871 -2.02657,-3.25373379 -5.54516,-9.47794289 -5.54516,-9.47794289 z"
           sodipodi:nodetypes="cscsc" /><path
           id="path40521"
           style="opacity:0.990674;fill:url(#linearGradient40527);fill-opacity:1;stroke-width:5.11699"
           transform="rotate(37.054384)"
           d="m 132.18816,-10.249933 c 0.32417,-0.04054 3.16413,3.7663317 5.37148,8.5609198 0.93569,2.03242826 4.41646,7.161462 7.18836,9.5290218 0,0 -6.66011,-3.9318936 -8.90086,-7.18785275 -2.17315,-3.15771845 -3.65898,-10.90208885 -3.65898,-10.90208885 z"
           sodipodi:nodetypes="cscsc" /></g><g
         id="g40533"
         transform="matrix(-0.54484647,0.86664299,0.64958556,0.64374606,85.90766,-40.0413)"><path
           id="path40529"
           style="opacity:0.990674;fill:url(#linearGradient40535);fill-opacity:1;stroke-width:5.11699"
           transform="rotate(37.054384)"
           d="m 132.18816,-10.249933 c 0.31659,-0.135104 7.8512,1.7811675 10.04562,4.7739534 3.0865,4.2094306 0.84672,9.2029797 2.51422,13.3159882 -1.1982,-0.8910695 -5.005,-5.3853878 -7.01468,-8.61199871 -2.02657,-3.25373379 -5.54516,-9.47794289 -5.54516,-9.47794289 z"
           sodipodi:nodetypes="cscsc" /><path
           id="path40531"
           style="opacity:0.990674;fill:url(#linearGradient40537);fill-opacity:1;stroke-width:5.11699"
           transform="rotate(37.054384)"
           d="m 132.18816,-10.249933 c 0.32417,-0.04054 3.16413,3.7663317 5.37148,8.5609198 0.93569,2.03242826 4.41646,7.161462 7.18836,9.5290218 0,0 -6.66011,-3.9318936 -8.90086,-7.18785275 -2.17315,-3.15771845 -3.65898,-10.90208885 -3.65898,-10.90208885 z"
           sodipodi:nodetypes="cscsc" /></g><g
         id="g40553"
         transform="matrix(-0.54484647,0.86664299,0.64958556,0.64374606,123.80488,-43.727298)"><path
           id="path40549"
           style="opacity:0.990674;fill:url(#linearGradient40555);fill-opacity:1;stroke-width:5.11699"
           transform="rotate(37.054384)"
           d="m 132.18816,-10.249933 c 0.31659,-0.135104 7.8512,1.7811675 10.04562,4.7739534 3.0865,4.2094306 0.84672,9.2029797 2.51422,13.3159882 -1.1982,-0.8910695 -5.005,-5.3853878 -7.01468,-8.61199871 -2.02657,-3.25373379 -5.54516,-9.47794289 -5.54516,-9.47794289 z"
           sodipodi:nodetypes="cscsc" /><path
           id="path40551"
           style="opacity:0.990674;fill:url(#linearGradient40557);fill-opacity:1;stroke-width:5.11699"
           transform="rotate(37.054384)"
           d="m 132.18816,-10.249933 c 0.32417,-0.04054 3.16413,3.7663317 5.37148,8.5609198 0.93569,2.03242826 4.41646,7.161462 7.18836,9.5290218 0,0 -6.66011,-3.9318936 -8.90086,-7.18785275 -2.17315,-3.15771845 -3.65898,-10.90208885 -3.65898,-10.90208885 z"
           sodipodi:nodetypes="cscsc" /></g><g
         id="g40563"
         transform="matrix(-0.71178739,-0.21847658,0.05194685,-0.6631418,204.15093,183.35398)"><path
           id="path40559"
           style="opacity:0.990674;fill:url(#linearGradient40565);fill-opacity:1;stroke-width:5.11699"
           transform="rotate(37.054384)"
           d="m 132.18816,-10.249933 c 0.31659,-0.135104 7.8512,1.7811675 10.04562,4.7739534 3.0865,4.2094306 0.84672,9.2029797 2.51422,13.3159882 -1.1982,-0.8910695 -5.005,-5.3853878 -7.01468,-8.61199871 -2.02657,-3.25373379 -5.54516,-9.47794289 -5.54516,-9.47794289 z"
           sodipodi:nodetypes="cscsc" /><path
           id="path40561"
           style="opacity:0.990674;fill:url(#linearGradient40567);fill-opacity:1;stroke-width:5.11699"
           transform="rotate(37.054384)"
           d="m 132.18816,-10.249933 c 0.32417,-0.04054 3.16413,3.7663317 5.37148,8.5609198 0.93569,2.03242826 4.41646,7.161462 7.18836,9.5290218 0,0 -6.66011,-3.9318936 -8.90086,-7.18785275 -2.17315,-3.15771845 -3.65898,-10.90208885 -3.65898,-10.90208885 z"
           sodipodi:nodetypes="cscsc" /></g><g
         id="g40573"
         transform="matrix(-0.28494022,0.98322776,0.80182668,0.4398231,59.806784,-12.359725)"><path
           id="path40569"
           style="opacity:0.990674;fill:url(#linearGradient40575);fill-opacity:1;stroke-width:5.11699"
           transform="rotate(37.054384)"
           d="m 132.18816,-10.249933 c 0.31659,-0.135104 7.8512,1.7811675 10.04562,4.7739534 3.0865,4.2094306 0.84672,9.2029797 2.51422,13.3159882 -1.1982,-0.8910695 -5.005,-5.3853878 -7.01468,-8.61199871 -2.02657,-3.25373379 -5.54516,-9.47794289 -5.54516,-9.47794289 z"
           sodipodi:nodetypes="cscsc" /><path
           id="path40571"
           style="opacity:0.990674;fill:url(#linearGradient40577);fill-opacity:1;stroke-width:5.11699"
           transform="rotate(37.054384)"
           d="m 132.18816,-10.249933 c 0.32417,-0.04054 3.16413,3.7663317 5.37148,8.5609198 0.93569,2.03242826 4.41646,7.161462 7.18836,9.5290218 0,0 -6.66011,-3.9318936 -8.90086,-7.18785275 -2.17315,-3.15771845 -3.65898,-10.90208885 -3.65898,-10.90208885 z"
           sodipodi:nodetypes="cscsc" /></g><g
         id="g40593"
         transform="matrix(-0.65602986,0.25186913,0.09191514,0.62102578,203.62231,33.435029)"><path
           id="path40589"
           style="opacity:0.990674;fill:url(#linearGradient41992);fill-opacity:1;stroke-width:5.11699"
           transform="rotate(37.054384)"
           d="m 132.18816,-10.249933 c 0.31659,-0.135104 7.8512,1.7811675 10.04562,4.7739534 3.0865,4.2094306 0.84672,9.2029797 2.51422,13.3159882 -1.1982,-0.8910695 -5.005,-5.3853878 -7.01468,-8.61199871 -2.02657,-3.25373379 -5.54516,-9.47794289 -5.54516,-9.47794289 z"
           sodipodi:nodetypes="cscsc" /><path
           id="path40591"
           style="opacity:0.990674;fill:url(#linearGradient41994);fill-opacity:1;stroke-width:5.11699"
           transform="rotate(37.054384)"
           d="m 132.18816,-10.249933 c 0.32417,-0.04054 3.16413,3.7663317 5.37148,8.5609198 0.93569,2.03242826 4.41646,7.161462 7.18836,9.5290218 0,0 -6.66011,-3.9318936 -8.90086,-7.18785275 -2.17315,-3.15771845 -3.65898,-10.90208885 -3.65898,-10.90208885 z"
           sodipodi:nodetypes="cscsc" /></g><g
         id="g40633"
         transform="matrix(0.53822002,0.87077377,0.86400042,-0.29978936,-37.20295,72.145995)"><path
           id="path40629"
           style="opacity:0.990674;fill:url(#linearGradient40635);fill-opacity:1;stroke-width:5.11699"
           transform="rotate(37.054384)"
           d="m 132.18816,-10.249933 c 0.31659,-0.135104 7.8512,1.7811675 10.04562,4.7739534 3.0865,4.2094306 0.84672,9.2029797 2.51422,13.3159882 -1.1982,-0.8910695 -5.005,-5.3853878 -7.01468,-8.61199871 -2.02657,-3.25373379 -5.54516,-9.47794289 -5.54516,-9.47794289 z"
           sodipodi:nodetypes="cscsc" /><path
           id="path40631"
           style="opacity:0.990674;fill:url(#linearGradient40637);fill-opacity:1;stroke-width:5.11699"
           transform="rotate(37.054384)"
           d="m 132.18816,-10.249933 c 0.32417,-0.04054 3.16413,3.7663317 5.37148,8.5609198 0.93569,2.03242826 4.41646,7.161462 7.18836,9.5290218 0,0 -6.66011,-3.9318936 -8.90086,-7.18785275 -2.17315,-3.15771845 -3.65898,-10.90208885 -3.65898,-10.90208885 z"
           sodipodi:nodetypes="cscsc" /></g><g
         id="g40643"
         transform="matrix(-0.46906764,0.75197508,-0.74695818,-0.26261805,223.16582,63.845444)"><path
           id="path40639"
           style="opacity:0.990674;fill:url(#linearGradient40645);fill-opacity:1;stroke-width:5.11699"
           transform="rotate(37.054384)"
           d="m 128.26894,-11.395222 c 0.31659,-0.135104 9.66554,2.9183787 11.85996,5.9111646 3.0865,4.2094306 2.9516,9.2110575 4.6191,13.324066 -1.1982,-0.8910695 -5.005,-5.3853878 -7.01468,-8.61199871 -2.02657,-3.25373379 -9.46438,-10.62323189 -9.46438,-10.62323189 z"
           sodipodi:nodetypes="cscsc" /><path
           id="path40641"
           style="opacity:0.990674;fill:url(#linearGradient40647);fill-opacity:1;stroke-width:5.11699"
           transform="rotate(37.054384)"
           d="m 128.26894,-11.395222 c 0.32417,-0.04054 7.08335,4.9116207 9.2907,9.7062088 0.93569,2.03242826 4.41646,7.161462 7.18836,9.5290218 0,0 -6.66011,-3.9318936 -8.90086,-7.18785275 -2.17315,-3.15771845 -7.5782,-12.04737785 -7.5782,-12.04737785 z"
           sodipodi:nodetypes="cscsc" /></g><g
         id="g41379"
         transform="matrix(-0.65602986,0.25186913,0.09191514,0.62102578,203.62231,33.435029)"><path
           id="path41375"
           style="opacity:0.990674;fill:url(#linearGradient40595);fill-opacity:1;stroke-width:5.11699"
           transform="rotate(37.054384)"
           d="m 132.18816,-10.249933 c 0.31659,-0.135104 7.8512,1.7811675 10.04562,4.7739534 3.0865,4.2094306 0.84672,9.2029797 2.51422,13.3159882 -1.1982,-0.8910695 -5.005,-5.3853878 -7.01468,-8.61199871 -2.02657,-3.25373379 -5.54516,-9.47794289 -5.54516,-9.47794289 z"
           sodipodi:nodetypes="cscsc" /><path
           id="path41377"
           style="opacity:0.990674;fill:url(#linearGradient40597);fill-opacity:1;stroke-width:5.11699"
           transform="rotate(37.054384)"
           d="m 132.18816,-10.249933 c 0.32417,-0.04054 3.16413,3.7663317 5.37148,8.5609198 0.93569,2.03242826 4.41646,7.161462 7.18836,9.5290218 0,0 -6.66011,-3.9318936 -8.90086,-7.18785275 -2.17315,-3.15771845 -3.65898,-10.90208885 -3.65898,-10.90208885 z"
           sodipodi:nodetypes="cscsc" /></g></g></g></svg>
